<mxfile host="app.diagrams.net" modified="2023-11-13T15:53:39.174Z" agent="Mozilla/5.0 (Windows NT 10.0; Win64; x64) AppleWebKit/537.36 (KHTML, like Gecko) Chrome/119.0.0.0 Safari/537.36" etag="BtHPGc1Kqs_8LP-lK37A" version="22.1.0" type="device">
  <diagram name="Сторінка-1" id="Z4KhiN_MX3Fi-sCQgkAt">
    <mxGraphModel dx="1614" dy="925" grid="1" gridSize="10" guides="1" tooltips="1" connect="1" arrows="1" fold="1" page="1" pageScale="1" pageWidth="827" pageHeight="1169" math="0" shadow="0">
      <root>
        <mxCell id="0" />
        <mxCell id="1" parent="0" />
        <mxCell id="czkbjbAyjHGsx-T5HPh4-1" value="Actor" style="shape=umlActor;verticalLabelPosition=bottom;verticalAlign=top;html=1;outlineConnect=0;" vertex="1" parent="1">
          <mxGeometry x="80" y="390" width="30" height="60" as="geometry" />
        </mxCell>
        <mxCell id="czkbjbAyjHGsx-T5HPh4-4" value="Сортувати за станцією відправлення" style="ellipse;whiteSpace=wrap;html=1;" vertex="1" parent="1">
          <mxGeometry x="250" y="320" width="120" height="80" as="geometry" />
        </mxCell>
        <mxCell id="czkbjbAyjHGsx-T5HPh4-5" value="Сортувати за середньою&amp;nbsp; швидкістю" style="ellipse;whiteSpace=wrap;html=1;" vertex="1" parent="1">
          <mxGeometry x="250" y="420" width="120" height="80" as="geometry" />
        </mxCell>
        <mxCell id="czkbjbAyjHGsx-T5HPh4-6" value="Визначити, які поїзди&amp;nbsp; відправляються з заданої станції у заданий період часу" style="ellipse;whiteSpace=wrap;html=1;" vertex="1" parent="1">
          <mxGeometry x="230" y="540" width="150" height="100" as="geometry" />
        </mxCell>
        <mxCell id="czkbjbAyjHGsx-T5HPh4-7" value="Визначити, які поїзди&amp;nbsp; прибувають у задану станцію у заданий період часу" style="ellipse;whiteSpace=wrap;html=1;" vertex="1" parent="1">
          <mxGeometry x="230" y="670" width="150" height="100" as="geometry" />
        </mxCell>
        <mxCell id="czkbjbAyjHGsx-T5HPh4-8" value="Визначити № поїздів, які&amp;nbsp; курсують через задану станцію" style="ellipse;whiteSpace=wrap;html=1;" vertex="1" parent="1">
          <mxGeometry x="230" y="790" width="150" height="100" as="geometry" />
        </mxCell>
        <mxCell id="czkbjbAyjHGsx-T5HPh4-9" value="Згрупувати поїзди" style="ellipse;whiteSpace=wrap;html=1;" vertex="1" parent="1">
          <mxGeometry x="440" y="320" width="120" height="80" as="geometry" />
        </mxCell>
        <mxCell id="czkbjbAyjHGsx-T5HPh4-26" style="edgeStyle=orthogonalEdgeStyle;rounded=0;orthogonalLoop=1;jettySize=auto;html=1;exitX=1;exitY=0.5;exitDx=0;exitDy=0;entryX=0;entryY=1;entryDx=0;entryDy=0;entryPerimeter=0;endArrow=none;endFill=0;" edge="1" parent="1" source="czkbjbAyjHGsx-T5HPh4-10" target="czkbjbAyjHGsx-T5HPh4-1">
          <mxGeometry relative="1" as="geometry">
            <mxPoint x="600" y="980" as="targetPoint" />
            <Array as="points">
              <mxPoint x="580" y="460" />
              <mxPoint x="580" y="920" />
              <mxPoint x="80" y="920" />
            </Array>
          </mxGeometry>
        </mxCell>
        <mxCell id="czkbjbAyjHGsx-T5HPh4-10" value="Додати новий маршрут" style="ellipse;whiteSpace=wrap;html=1;" vertex="1" parent="1">
          <mxGeometry x="440" y="420" width="120" height="80" as="geometry" />
        </mxCell>
        <mxCell id="czkbjbAyjHGsx-T5HPh4-11" value="Видалити маршрут" style="ellipse;whiteSpace=wrap;html=1;" vertex="1" parent="1">
          <mxGeometry x="440" y="540" width="120" height="80" as="geometry" />
        </mxCell>
        <mxCell id="czkbjbAyjHGsx-T5HPh4-31" style="edgeStyle=orthogonalEdgeStyle;rounded=0;orthogonalLoop=1;jettySize=auto;html=1;exitX=0.5;exitY=1;exitDx=0;exitDy=0;entryX=0;entryY=0.5;entryDx=0;entryDy=0;dashed=1;endArrow=open;endFill=0;" edge="1" parent="1" source="czkbjbAyjHGsx-T5HPh4-12" target="czkbjbAyjHGsx-T5HPh4-14">
          <mxGeometry relative="1" as="geometry" />
        </mxCell>
        <mxCell id="czkbjbAyjHGsx-T5HPh4-12" value="Вивести розклад потягів" style="ellipse;whiteSpace=wrap;html=1;" vertex="1" parent="1">
          <mxGeometry x="250" y="160" width="120" height="80" as="geometry" />
        </mxCell>
        <mxCell id="czkbjbAyjHGsx-T5HPh4-13" value="Взяти розклад із системного файлу" style="ellipse;whiteSpace=wrap;html=1;" vertex="1" parent="1">
          <mxGeometry x="440" y="90" width="120" height="80" as="geometry" />
        </mxCell>
        <mxCell id="czkbjbAyjHGsx-T5HPh4-14" value="Взяти розклад із свого файлу" style="ellipse;whiteSpace=wrap;html=1;" vertex="1" parent="1">
          <mxGeometry x="440" y="210" width="120" height="80" as="geometry" />
        </mxCell>
        <mxCell id="czkbjbAyjHGsx-T5HPh4-15" value="Зберерегти розклад у файл" style="ellipse;whiteSpace=wrap;html=1;" vertex="1" parent="1">
          <mxGeometry x="440" y="640" width="120" height="80" as="geometry" />
        </mxCell>
        <mxCell id="czkbjbAyjHGsx-T5HPh4-16" style="edgeStyle=orthogonalEdgeStyle;rounded=0;orthogonalLoop=1;jettySize=auto;html=1;exitX=0;exitY=0.5;exitDx=0;exitDy=0;entryX=0.5;entryY=0;entryDx=0;entryDy=0;entryPerimeter=0;endArrow=none;endFill=0;" edge="1" parent="1" source="czkbjbAyjHGsx-T5HPh4-12" target="czkbjbAyjHGsx-T5HPh4-1">
          <mxGeometry relative="1" as="geometry" />
        </mxCell>
        <mxCell id="czkbjbAyjHGsx-T5HPh4-17" style="edgeStyle=orthogonalEdgeStyle;rounded=0;orthogonalLoop=1;jettySize=auto;html=1;exitX=0;exitY=0.5;exitDx=0;exitDy=0;entryX=1;entryY=0.3333333333333333;entryDx=0;entryDy=0;entryPerimeter=0;endArrow=none;endFill=0;" edge="1" parent="1" source="czkbjbAyjHGsx-T5HPh4-4" target="czkbjbAyjHGsx-T5HPh4-1">
          <mxGeometry relative="1" as="geometry" />
        </mxCell>
        <mxCell id="czkbjbAyjHGsx-T5HPh4-18" style="edgeStyle=orthogonalEdgeStyle;rounded=0;orthogonalLoop=1;jettySize=auto;html=1;exitX=0;exitY=0.5;exitDx=0;exitDy=0;entryX=1;entryY=0.3333333333333333;entryDx=0;entryDy=0;entryPerimeter=0;endArrow=none;endFill=0;" edge="1" parent="1" source="czkbjbAyjHGsx-T5HPh4-5" target="czkbjbAyjHGsx-T5HPh4-1">
          <mxGeometry relative="1" as="geometry" />
        </mxCell>
        <mxCell id="czkbjbAyjHGsx-T5HPh4-19" style="edgeStyle=orthogonalEdgeStyle;rounded=0;orthogonalLoop=1;jettySize=auto;html=1;exitX=0;exitY=0.5;exitDx=0;exitDy=0;entryX=1;entryY=0.3333333333333333;entryDx=0;entryDy=0;entryPerimeter=0;endArrow=none;endFill=0;" edge="1" parent="1" source="czkbjbAyjHGsx-T5HPh4-6" target="czkbjbAyjHGsx-T5HPh4-1">
          <mxGeometry relative="1" as="geometry">
            <Array as="points">
              <mxPoint x="180" y="590" />
              <mxPoint x="180" y="410" />
            </Array>
          </mxGeometry>
        </mxCell>
        <mxCell id="czkbjbAyjHGsx-T5HPh4-20" style="edgeStyle=orthogonalEdgeStyle;rounded=0;orthogonalLoop=1;jettySize=auto;html=1;exitX=0;exitY=0.5;exitDx=0;exitDy=0;entryX=1;entryY=0.3333333333333333;entryDx=0;entryDy=0;entryPerimeter=0;endArrow=none;endFill=0;" edge="1" parent="1" source="czkbjbAyjHGsx-T5HPh4-7" target="czkbjbAyjHGsx-T5HPh4-1">
          <mxGeometry relative="1" as="geometry">
            <Array as="points">
              <mxPoint x="180" y="720" />
              <mxPoint x="180" y="410" />
            </Array>
          </mxGeometry>
        </mxCell>
        <mxCell id="czkbjbAyjHGsx-T5HPh4-21" style="edgeStyle=orthogonalEdgeStyle;rounded=0;orthogonalLoop=1;jettySize=auto;html=1;exitX=0;exitY=0.5;exitDx=0;exitDy=0;entryX=1;entryY=0.3333333333333333;entryDx=0;entryDy=0;entryPerimeter=0;endArrow=none;endFill=0;" edge="1" parent="1" source="czkbjbAyjHGsx-T5HPh4-8" target="czkbjbAyjHGsx-T5HPh4-1">
          <mxGeometry relative="1" as="geometry">
            <Array as="points">
              <mxPoint x="180" y="840" />
              <mxPoint x="180" y="410" />
            </Array>
          </mxGeometry>
        </mxCell>
        <mxCell id="czkbjbAyjHGsx-T5HPh4-22" style="edgeStyle=orthogonalEdgeStyle;rounded=0;orthogonalLoop=1;jettySize=auto;html=1;exitX=0.5;exitY=0;exitDx=0;exitDy=0;entryX=0.5;entryY=0;entryDx=0;entryDy=0;entryPerimeter=0;endArrow=none;endFill=0;" edge="1" parent="1" source="czkbjbAyjHGsx-T5HPh4-9" target="czkbjbAyjHGsx-T5HPh4-1">
          <mxGeometry relative="1" as="geometry" />
        </mxCell>
        <mxCell id="czkbjbAyjHGsx-T5HPh4-23" style="edgeStyle=orthogonalEdgeStyle;rounded=0;orthogonalLoop=1;jettySize=auto;html=1;exitX=0.5;exitY=1;exitDx=0;exitDy=0;entryX=0;entryY=1;entryDx=0;entryDy=0;entryPerimeter=0;endArrow=none;endFill=0;" edge="1" parent="1" source="czkbjbAyjHGsx-T5HPh4-15" target="czkbjbAyjHGsx-T5HPh4-1">
          <mxGeometry relative="1" as="geometry">
            <Array as="points">
              <mxPoint x="500" y="920" />
              <mxPoint x="80" y="920" />
            </Array>
          </mxGeometry>
        </mxCell>
        <mxCell id="czkbjbAyjHGsx-T5HPh4-25" style="edgeStyle=orthogonalEdgeStyle;rounded=0;orthogonalLoop=1;jettySize=auto;html=1;exitX=0;exitY=0.5;exitDx=0;exitDy=0;entryX=1;entryY=1;entryDx=0;entryDy=0;entryPerimeter=0;endArrow=none;endFill=0;" edge="1" parent="1" source="czkbjbAyjHGsx-T5HPh4-11" target="czkbjbAyjHGsx-T5HPh4-1">
          <mxGeometry relative="1" as="geometry">
            <Array as="points">
              <mxPoint x="420" y="580" />
              <mxPoint x="420" y="520" />
              <mxPoint x="110" y="520" />
            </Array>
          </mxGeometry>
        </mxCell>
        <mxCell id="czkbjbAyjHGsx-T5HPh4-30" style="edgeStyle=orthogonalEdgeStyle;rounded=0;orthogonalLoop=1;jettySize=auto;html=1;exitX=1;exitY=0.5;exitDx=0;exitDy=0;entryX=0;entryY=0.375;entryDx=0;entryDy=0;entryPerimeter=0;dashed=1;endArrow=openThin;endFill=0;" edge="1" parent="1" source="czkbjbAyjHGsx-T5HPh4-12" target="czkbjbAyjHGsx-T5HPh4-13">
          <mxGeometry relative="1" as="geometry" />
        </mxCell>
        <mxCell id="czkbjbAyjHGsx-T5HPh4-32" value="&amp;lt;&amp;lt;include&amp;gt;&amp;gt;" style="edgeLabel;html=1;align=center;verticalAlign=middle;resizable=0;points=[];" vertex="1" connectable="0" parent="czkbjbAyjHGsx-T5HPh4-30">
          <mxGeometry y="1" relative="1" as="geometry">
            <mxPoint as="offset" />
          </mxGeometry>
        </mxCell>
        <mxCell id="czkbjbAyjHGsx-T5HPh4-33" value="&amp;lt;&amp;lt;include&amp;gt;&amp;gt;" style="edgeLabel;html=1;align=center;verticalAlign=middle;resizable=0;points=[];" vertex="1" connectable="0" parent="1">
          <mxGeometry x="350" y="260" as="geometry" />
        </mxCell>
      </root>
    </mxGraphModel>
  </diagram>
</mxfile>
